<?xml version="1.0" encoding="utf-8"?>
<!-- Generator: Adobe Illustrator 27.0.0, SVG Export Plug-In . SVG Version: 6.00 Build 0)  -->
<svg version="1.1" id="Layer_1" xmlns="http://www.w3.org/2000/svg" xmlns:xlink="http://www.w3.org/1999/xlink" x="0px" y="0px"
	 viewBox="0 0 50 50" style="enable-background:new 0 0 50 50;" xml:space="preserve">
<style type="text/css">
	.st0{fill:#F4A460;}
	.st1{fill:#D26A28;}
	.st2{fill:#F2F2F2;}
</style>
<g>
	<path class="st0" d="M11.7,29.44c2.54,1.73,1.83-3.26,1.83-3.26l7.54-2.03l2.43-7.28l5.22,5.22l0.14-0.04l3.2-0.86l-2.63-2.23
		l7.6-2.27l12.61,12.6C49.87,27.89,50,26.46,50,25C50,11.19,38.81,0,25,0S0,11.19,0,25s11.19,25,25,25c0.29,0,0.58-0.01,0.87-0.02
		L10.16,34.01L11.7,29.44z"/>
	<path class="st1" d="M49.63,29.28l-12.61-12.6l-7.6,2.27l2.63,2.23l-3.2,0.86l-0.14,0.04l-5.22-5.22l-9.44,1.32l-0.53,8
		c0,0,0.72,4.99-1.83,3.26l-1.54,4.57l15.71,15.97C37.82,49.57,47.64,40.77,49.63,29.28z"/>
</g>
<g>
	<path class="st2" d="M22.14,24.01c0,0,2.81-0.21,2.81-3.5c0-3.3-2.3-4.9-5.21-4.9h-9.58v18.41h9.58c0,0,5.85,0.18,5.85-5.44
		C25.58,28.58,25.84,24.01,22.14,24.01z M14.38,18.87h5.36c0,0,1.3,0,1.3,1.92c0,1.91-0.77,2.19-1.63,2.19h-5.03V18.87z
		 M19.49,30.74h-5.11v-4.92h5.36c0,0,1.94-0.02,1.94,2.53C21.68,30.48,20.26,30.72,19.49,30.74z"/>
	<rect x="29.42" y="16.69" class="st2" width="7.6" height="2.27"/>
	<path class="st2" d="M33.38,20.28c-7.08,0-7.07,7.07-7.07,7.07s-0.49,7.04,7.07,7.04c0,0,6.3,0.36,6.3-4.9h-3.24
		c0,0,0.11,1.98-2.95,1.98c0,0-3.24,0.22-3.24-3.2h9.54C39.79,28.28,40.84,20.28,33.38,20.28z M30.22,25.82c0,0,0.39-2.84,3.24-2.84
		c2.84,0,2.81,2.84,2.81,2.84H30.22z"/>
</g>
</svg>
