<?xml version="1.0" encoding="utf-8"?>
<!-- Generator: Adobe Illustrator 27.0.0, SVG Export Plug-In . SVG Version: 6.00 Build 0)  -->
<svg version="1.1" id="Over" xmlns="http://www.w3.org/2000/svg" xmlns:xlink="http://www.w3.org/1999/xlink" x="0px" y="0px"
	 viewBox="0 0 50 50" style="enable-background:new 0 0 50 50;" xml:space="preserve">
<style type="text/css">
	.st0{fill:#D26A28;}
	.st1{fill:#F4A460;}
	.st2{fill:#F2F2F2;}
</style>
<g>
	<path class="st0" d="M11.7,29.4c2.5,1.7,1.8-3.3,1.8-3.3l7.5-2l2.4-7.3l5.2,5.2h0.1l3.2-0.9L29.4,19l7.6-2.3l12.6,12.6
		c0.2-1.4,0.4-2.8,0.4-4.3C50,11.2,38.8,0,25,0S0,11.2,0,25s11.2,25,25,25c0.3,0,0.6,0,0.9,0L10.2,34L11.7,29.4z"/>
	<path class="st1" d="M49.6,29.3L37,16.7L29.4,19l2.6,2.2L28.9,22h-0.1l-5.2-5.2l-9.4,1.3l-0.5,8c0,0,0.7,5-1.8,3.3L10.2,34l15.7,16
		C37.8,49.6,47.6,40.8,49.6,29.3z"/>
</g>
<g>
	<path class="st2" d="M22.1,24c0,0,2.8-0.2,2.8-3.5s-2.3-4.9-5.2-4.9h-9.6V34h9.6c0,0,5.8,0.2,5.8-5.4C25.6,28.6,25.8,24,22.1,24z
		 M14.4,18.9h5.4c0,0,1.3,0,1.3,1.9S20.3,23,19.5,23h-5L14.4,18.9L14.4,18.9z M19.5,30.7h-5.1v-4.9h5.4c0,0,1.9,0,1.9,2.5
		C21.7,30.5,20.3,30.7,19.5,30.7z"/>
	<rect x="29.4" y="16.7" class="st2" width="7.6" height="2.3"/>
	<path class="st2" d="M33.4,20.3c-7.1,0-7.1,7.1-7.1,7.1s-0.5,7,7.1,7c0,0,6.3,0.4,6.3-4.9h-3.2c0,0,0.1,2-3,2c0,0-3.2,0.2-3.2-3.2
		h9.5C39.8,28.3,40.8,20.3,33.4,20.3z M30.2,25.8c0,0,0.4-2.8,3.2-2.8s2.8,2.8,2.8,2.8H30.2z"/>
</g>
</svg>
