<?xml version="1.0" encoding="utf-8"?>
<!-- Generator: Adobe Illustrator 27.0.0, SVG Export Plug-In . SVG Version: 6.00 Build 0)  -->
<svg version="1.1" id="Down" xmlns="http://www.w3.org/2000/svg" xmlns:xlink="http://www.w3.org/1999/xlink" x="0px" y="0px"
	 viewBox="0 0 50 50" style="enable-background:new 0 0 50 50;" xml:space="preserve">
<style type="text/css">
	.st0{fill:#FFFFFF;}
	.st1{fill:#D26A28;}
</style>
<g>
	<path class="st0" d="M10.3,31.4l3.2-16.5l10.3-5.7l8.8,0.7l5.2,2.2L50,24.2C49.5,10.7,38.5,0,25,0C11.2,0,0,11.2,0,25
		s11.2,25,25,25c0.2,0,0.5,0,0.7,0L12.8,37.1L10.3,31.4z"/>
	<path class="st0" d="M50,25c0-0.3,0-0.6,0-0.8L37.8,12l-5.2-2.2l-8.8-0.7l-10.3,5.7l-3.2,16.5l2.5,5.7l12.9,13
		C39.2,49.6,50,38.6,50,25z"/>
</g>
<g>
	<path class="st1" d="M32.6,39.7c-2.9,1.3-5.5,1.8-8.9,1.8c-8.1,0-15.2-5.8-15.2-15.3c0-9.9,7.3-18.5,18.2-18.5
		c4.7,0,8.7,1.8,11.3,4.7c2.2,2.4,3.4,5.7,3.4,9.4c0,7.1-4,11.6-9.2,11.6c-2.3,0-3.9-1.2-4.2-3.8h-0.1c-1.6,2.5-3.7,3.8-6.3,3.8
		c-3.1,0-5.5-2.4-5.5-6.4c0-5.9,4.4-11.3,11.4-11.3c2.1,0,4.6,0.5,5.7,1.2L31.7,26c-0.4,2.8-0.1,4.2,1.3,4.2
		c2.1,0.1,4.7-2.6,4.7-8.2c0-6.4-4.1-11.2-11.6-11.2s-14,5.8-14,15.1c0,8.2,5.2,12.8,12.4,12.8c2.5,0,5.2-0.5,7.1-1.5L32.6,39.7z
		 M28.3,19.6c-0.4-0.1-0.9-0.2-1.5-0.2c-3.2,0-5.7,3.2-5.7,6.9c0,1.8,0.8,3,2.4,3c1.8,0,3.7-2.2,4.1-5.1L28.3,19.6z"/>
</g>
</svg>
