<?xml version="1.0" encoding="utf-8"?>
<!-- Generator: Adobe Illustrator 27.0.0, SVG Export Plug-In . SVG Version: 6.00 Build 0)  -->
<svg version="1.1" id="Layer_1" xmlns="http://www.w3.org/2000/svg" xmlns:xlink="http://www.w3.org/1999/xlink" x="0px" y="0px"
	 viewBox="0 0 50 50" style="enable-background:new 0 0 50 50;" xml:space="preserve">
<style type="text/css">
	.st0{fill:#F4A460;}
	.st1{fill:#D26A28;}
	.st2{fill:#FFFFFF;}
</style>
<g>
	<path class="st0" d="M10.31,31.37l3.16-16.49l10.29-5.74L32.6,9.8l5.18,2.17l12.2,12.2C49.54,10.75,38.53,0,25,0
		C11.19,0,0,11.19,0,25s11.19,25,25,25c0.24,0,0.48-0.01,0.72-0.02L12.8,37.07L10.31,31.37z"/>
	<path class="st1" d="M50,25c0-0.28-0.01-0.55-0.02-0.83l-12.2-12.2L32.6,9.8l-8.84-0.66l-10.29,5.74l-3.16,16.49l2.49,5.7
		l12.92,12.92C39.19,49.6,50,38.57,50,25z"/>
</g>
<g>
	<path class="st2" d="M32.62,39.69c-2.92,1.31-5.45,1.75-8.91,1.75c-8.08,0-15.19-5.79-15.19-15.33c0-9.93,7.25-18.55,18.2-18.55
		c4.72,0,8.69,1.77,11.32,4.71c2.17,2.43,3.43,5.66,3.43,9.36c0,7.11-3.99,11.63-9.25,11.63c-2.29,0-3.94-1.22-4.19-3.8h-0.1
		c-1.56,2.48-3.7,3.8-6.33,3.8c-3.12,0-5.45-2.39-5.45-6.43c0-5.94,4.43-11.29,11.44-11.29c2.14,0,4.58,0.54,5.74,1.17l-1.46,9.05
		c-0.44,2.82-0.1,4.19,1.27,4.24c2.09,0.1,4.72-2.63,4.72-8.23c0-6.38-4.09-11.24-11.63-11.24c-7.5,0-13.97,5.79-13.97,15.14
		c0,8.18,5.16,12.75,12.41,12.75c2.48,0,5.16-0.54,7.11-1.51L32.62,39.69z M28.33,19.58c-0.39-0.1-0.93-0.19-1.51-0.19
		c-3.21,0-5.75,3.16-5.75,6.91c0,1.85,0.83,2.97,2.39,2.97c1.85,0,3.75-2.24,4.14-5.06L28.33,19.58z"/>
</g>
</svg>
