<?xml version="1.0" encoding="utf-8"?>
<!-- Generator: Adobe Illustrator 27.0.0, SVG Export Plug-In . SVG Version: 6.00 Build 0)  -->
<svg version="1.1" id="Layer_1" xmlns="http://www.w3.org/2000/svg" xmlns:xlink="http://www.w3.org/1999/xlink" x="0px" y="0px"
	 viewBox="0 0 50 50" style="enable-background:new 0 0 50 50;" xml:space="preserve">
<style type="text/css">
	.st0{fill:#F4A460;}
	.st1{fill:#D26A28;}
	.st2{fill:#FFFFFF;}
</style>
<path class="st0" d="M50,25C50,11.19,38.81,0,25,0S0,11.19,0,25c0,12.48,9.15,22.82,21.1,24.7V32.2h-6.4V25h6.4v-6.46
	c0-4.82,3.91-8.74,8.74-8.74h0.66h0.15c1.83,0,3.65,0.17,5.45,0.5v6.17h-3.42H32.3c-1.88,0-3.4,1.52-3.4,3.4v1.53V25h6.91l-1.11,7.2
	h-5.8v17.5C40.85,47.82,50,37.48,50,25z"/>
<g>
	<path class="st1" d="M50,25c0-0.27-0.01-0.54-0.01-0.81L36.1,10.3l-9.49,4.62l-1.78,32.93l2.09,2.09C39.83,48.95,50,38.16,50,25z"
		/>
</g>
<path class="st2" d="M34.7,32.2l1.11-7.2H28.9v-3.6v-1.53c0-1.88,1.52-3.4,3.4-3.4h0.38h3.42V10.3c-1.8-0.33-3.62-0.5-5.45-0.5H30.5
	h-0.66c-4.82,0-8.74,3.91-8.74,8.74V25h-6.4v7.2h6.4v17.5c1.27,0.2,2.57,0.3,3.9,0.3s2.63-0.1,3.9-0.3V32.2H34.7z"/>
</svg>
