<?xml version="1.0" encoding="utf-8"?>
<!-- Generator: Adobe Illustrator 27.0.0, SVG Export Plug-In . SVG Version: 6.00 Build 0)  -->
<svg version="1.1" id="Layer_1" xmlns="http://www.w3.org/2000/svg" xmlns:xlink="http://www.w3.org/1999/xlink" x="0px" y="0px"
	 viewBox="0 0 50 50" style="enable-background:new 0 0 50 50;" xml:space="preserve">
<style type="text/css">
	.st0{fill:#F4A460;}
	.st1{fill:#D26A28;}
	.st2{fill:#FFFFFF;}
</style>
<g>
	<path class="st0" d="M5.7,29.7c0,0,0.5-11.2,0.8-11.4c0.3-0.3,5.1-7.4,5.1-7.4l11.3,11.3l1.1-8.2l-0.4-1.2l19.3,19.3l2-4.2
		l-0.8-8.1l-4.9-7.4l1.6,0.2l8.9,8.9C48,9.3,37.6,0,25,0C11.2,0,0,11.2,0,25c0,12.6,9.4,23.1,21.5,24.8L9.3,37.5L5.7,29.7z"/>
	<path class="st1" d="M50,25c0-1.2-0.1-2.4-0.3-3.6l-8.9-8.9l-1.6-0.2l4.9,7.4l0.8,8.1l-2,4.2L23.7,12.7l0.4,1.2l-1.1,8.2L11.6,10.8
		c0,0-4.9,7.2-5.1,7.4c-0.3,0.3-0.8,11.4-0.8,11.4l3.6,7.9l12.2,12.2c1.1,0.2,2.3,0.2,3.5,0.2C38.8,50,50,38.8,50,25z"/>
</g>
<g>
	<path class="st2" d="M25.3,22.3c-0.9,2.1-2.3,3.9-3.4,5.8c-0.8,1.3-1.4,2.6-1.7,4.1c-0.3,1.2-0.3,2.5,0.3,3.7
		c0.1,0.2,0.3,0.5,0.4,0.8c-0.4-0.3-0.8-0.6-1.1-0.9c-1-1-1.9-2.1-2.4-3.5c-0.6-1.7-0.5-3.5,0.1-5.2c0.5-1.3,1.2-2.4,2-3.5
		c1.3-2,2.5-4,3.4-6.3c0.4-1.1,0.7-2.2,0.8-3.4c0-0.4,0-0.7,0-1.1c0.4,0.3,0.8,0.7,1.1,1c1.3,1.2,2.4,2.5,3.2,4.1
		c0.9,1.8,1.1,3.7,0.7,5.6c-0.1,0.5-0.2,1-0.3,1.5c-0.1,0.4,0.1,0.6,0.5,0.5c0.4-0.1,0.6-0.3,0.8-0.5c0.3-0.4,0.5-0.9,0.8-1.3
		c0.1-0.1,0.2-0.2,0.2-0.4c1.2,1.6,2.1,3.4,2.3,5.5c0.1,1.4-0.2,2.6-0.8,3.9c-0.8,1.7-2.1,3-3.7,4.1c0.2-0.3,0.5-0.6,0.7-0.9
		c0.6-0.8,1-1.7,1.1-2.8c0-0.5-0.1-1-0.4-1.5c-0.1-0.1-0.2-0.2-0.3-0.1c-0.8,0.1-1.5,0.2-2.3-0.1c-0.9-0.3-1.4-1-1.5-1.9
		c-0.1-0.9,0-1.7,0.1-2.6c0.2-1.4,0.1-2.8-0.4-4.1C25.5,22.6,25.4,22.5,25.3,22.3z"/>
	<path class="st2" d="M4.4,24.4c0-2.3,0.4-4.5,1.3-6.7c0.7-1.6,1.6-3,2.7-4.2c0.6-0.7,1.2-1.3,1.9-1.9c0.4-0.3,0.8-0.6,1.3-0.5
		c0.6,0.1,0.9,0.7,0.6,1.2c-0.4,0.5-0.9,1.1-1.4,1.5c-1.9,2-3.2,4.3-3.9,7c-0.5,2-0.5,4-0.3,6.1c0.2,2,0.8,3.9,1.7,5.6
		c0.7,1.4,1.7,2.7,2.8,3.8c0.3,0.3,0.7,0.7,1,1.1c0.4,0.6,0.2,1.2-0.4,1.5c-0.2,0.1-0.5,0.1-0.7,0c-0.5-0.3-0.9-0.6-1.3-0.9
		c-2.6-2.6-4.3-5.7-5-9.3C4.5,27.2,4.4,25.8,4.4,24.4z"/>
	<path class="st2" d="M45.6,24.3c0,2.7-0.4,5.4-1.4,7.9c-0.7,1.7-1.7,3.2-3,4.6c-0.6,0.7-1.2,1.3-1.9,1.8c-0.2,0.1-0.4,0.2-0.5,0.2
		c-0.3,0.1-0.6,0-0.9-0.3c-0.2-0.3-0.3-0.7-0.1-1c0.2-0.3,0.3-0.5,0.6-0.7c1.6-1.5,3-3.3,3.8-5.4c0.7-1.6,1.1-3.3,1.2-5.1
		c0.1-1.4,0.1-2.7-0.1-4.1c-0.3-2.2-1-4.2-2.2-6c-0.7-1.1-1.5-2-2.4-2.9c-0.4-0.4-0.7-0.8-1-1.2c-0.2-0.2-0.2-0.5,0-0.8
		c0.2-0.3,0.5-0.4,0.8-0.4c0.3,0.1,0.6,0.2,0.9,0.3c0.9,0.5,1.5,1.3,2.2,2.1c1.5,1.8,2.6,3.7,3.3,5.9C45.5,21.1,45.7,22.7,45.6,24.3
		z"/>
</g>
</svg>
