<?xml version="1.0" encoding="utf-8"?>
<!-- Generator: Adobe Illustrator 27.0.0, SVG Export Plug-In . SVG Version: 6.00 Build 0)  -->
<svg version="1.1" id="Layer_1" xmlns="http://www.w3.org/2000/svg" xmlns:xlink="http://www.w3.org/1999/xlink" x="0px" y="0px"
	 viewBox="0 0 50 50" style="enable-background:new 0 0 50 50;" xml:space="preserve">
<style type="text/css">
	.st0{fill:#F4A460;}
	.st1{fill:#D26A28;}
	.st2{fill:#FFFFFF;}
	.st3{fill:none;stroke:#FFFFFF;stroke-width:4;stroke-miterlimit:10;}
</style>
<circle class="st0" cx="25" cy="25" r="25"/>
<path class="st1" d="M49.78,28.31c-1.5,11.34-10.6,20.29-22.02,21.54l-13-13c-1.69-1.19-2.8-3.15-2.8-5.37V18.83
	c0-3.62,2.94-6.56,6.56-6.56h12.65c2.22,0,4.18,1.11,5.37,2.8L49.78,28.31z"/>
<path class="st2" d="M36.54,15.07c-1.19-1.69-3.15-2.8-5.37-2.8H18.52c-3.62,0-6.56,2.94-6.56,6.56v12.65c0,2.22,1.11,4.18,2.8,5.37
	c1.06,0.75,2.36,1.19,3.76,1.19h12.65c3.62,0,6.56-2.94,6.56-6.56V18.83C37.73,17.43,37.29,16.13,36.54,15.07z M36.5,31.48
	c0,2.94-2.39,5.33-5.33,5.33H18.52c-2.94,0-5.33-2.39-5.33-5.33V18.83c0-2.94,2.39-5.33,5.33-5.33h12.65c2.94,0,5.33,2.39,5.33,5.33
	V31.48z"/>
<path class="st1" d="M36.5,18.83v12.65c0,2.94-2.39,5.33-5.33,5.33H18.52c-2.94,0-5.33-2.39-5.33-5.33V18.83
	c0-2.94,2.39-5.33,5.33-5.33h12.65C34.11,13.5,36.5,15.89,36.5,18.83z"/>
<path class="st3" d="M24.85,30.08L24.85,30.08c-2.72,0-4.93-2.21-4.93-4.93v0c0-2.72,2.21-4.93,4.93-4.93h0
	c2.72,0,4.93,2.21,4.93,4.93v0C29.78,27.88,27.57,30.08,24.85,30.08z"/>
<path class="st2" d="M32.2,19.04L32.2,19.04c-0.68,0-1.24-0.55-1.24-1.24v0c0-0.68,0.55-1.24,1.24-1.24l0,0
	c0.68,0,1.24,0.55,1.24,1.24v0C33.44,18.49,32.88,19.04,32.2,19.04z"/>
</svg>
