<?xml version="1.0" encoding="utf-8"?>
<!-- Generator: Adobe Illustrator 27.0.0, SVG Export Plug-In . SVG Version: 6.00 Build 0)  -->
<svg version="1.1" id="Over" xmlns="http://www.w3.org/2000/svg" xmlns:xlink="http://www.w3.org/1999/xlink" x="0px" y="0px"
	 viewBox="0 0 50 50" style="enable-background:new 0 0 50 50;" xml:space="preserve">
<style type="text/css">
	.st0{fill:#D26A28;}
	.st1{fill:#F4A460;}
	.st2{fill:#FFFFFF;}
	.st3{fill:none;stroke:#FFFFFF;stroke-width:4;stroke-miterlimit:10;}
</style>
<circle class="st0" cx="25" cy="25" r="25"/>
<path class="st1" d="M49.8,28.3c-1.5,11.3-10.6,20.3-22,21.5l-13-13c-1.7-1.2-2.8-3.2-2.8-5.4V18.8c0-3.6,2.9-6.6,6.6-6.6h12.6
	c2.2,0,4.2,1.1,5.4,2.8L49.8,28.3z"/>
<path class="st2" d="M36.5,15.1c-1.2-1.7-3.2-2.8-5.4-2.8H18.5c-3.6,0-6.6,2.9-6.6,6.6v12.6c0,2.2,1.1,4.2,2.8,5.4
	c1.1,0.8,2.4,1.2,3.8,1.2h12.6c3.6,0,6.6-2.9,6.6-6.6V18.8C37.7,17.4,37.3,16.1,36.5,15.1z M36.5,31.5c0,2.9-2.4,5.3-5.3,5.3H18.5
	c-2.9,0-5.3-2.4-5.3-5.3V18.8c0-2.9,2.4-5.3,5.3-5.3h12.6c2.9,0,5.3,2.4,5.3,5.3L36.5,31.5L36.5,31.5z"/>
<path class="st1" d="M36.5,18.8v12.6c0,2.9-2.4,5.3-5.3,5.3H18.5c-2.9,0-5.3-2.4-5.3-5.3V18.8c0-2.9,2.4-5.3,5.3-5.3h12.6
	C34.1,13.5,36.5,15.9,36.5,18.8z"/>
<path class="st3" d="M24.9,30.1L24.9,30.1c-2.7,0-4.9-2.2-4.9-4.9l0,0c0-2.7,2.2-4.9,4.9-4.9l0,0c2.7,0,4.9,2.2,4.9,4.9l0,0
	C29.8,27.9,27.6,30.1,24.9,30.1z"/>
<path class="st2" d="M32.2,19L32.2,19c-0.7,0-1.2-0.5-1.2-1.2l0,0c0-0.7,0.5-1.2,1.2-1.2l0,0c0.7,0,1.2,0.5,1.2,1.2l0,0
	C33.4,18.5,32.9,19,32.2,19z"/>
</svg>
