<?xml version="1.0" encoding="utf-8"?>
<!-- Generator: Adobe Illustrator 27.0.0, SVG Export Plug-In . SVG Version: 6.00 Build 0)  -->
<svg version="1.1" id="Over" xmlns="http://www.w3.org/2000/svg" xmlns:xlink="http://www.w3.org/1999/xlink" x="0px" y="0px"
	 viewBox="0 0 50 50" style="enable-background:new 0 0 50 50;" xml:space="preserve">
<style type="text/css">
	.st0{fill:#FFFFFF;}
	.st1{fill:#D26A28;}
</style>
<g>
	<circle class="st0" cx="25" cy="25" r="25"/>
	<path class="st0" d="M48.5,33.5C47.9,35.3,47,37,46,38.6c-0.2,0.2-0.3,0.5-0.5,0.7c-0.8,1.2-1.8,2.3-2.8,3.3
		c-0.4,0.4-0.7,0.7-1.1,1c-1.9,1.7-4.1,3.1-6.5,4.2c-1.8,0.8-3.7,1.4-5.6,1.7L15.2,35.5c-0.1,0-0.2-0.1-0.4-0.2
		c-0.2-0.2-0.2-0.5-0.2-0.7c0-2.8,0-5.5,0-8.3v-5.5c0-0.8,0.2-1,1-1h1.2c0.2,0,0.5,0,0.7,0L16,18.2c-1.2-0.5-1.8-1.7-1.8-2.8
		c0-1.5,1.1-3.1,3.1-3.1l0,0c0.9,0,1.6,0.3,2.2,0.9c0.3,0.3,0.5,0.6,0.7,1l5.5,5.5c0.3,0,0.5,0,0.8,0c0.1,0,0.5,0,0.7,0.2
		c0,0,0.1,0.1,0.1,0.1l0.5,0.5c1.8-1.5,4.4-1.5,6.4-0.8c0.4,0.1,0.7,0.3,1.1,0.6s0.6,0.5,0.8,0.9L48.5,33.5z"/>
	<g>
		<path class="st1" d="M19.6,13.2c-0.6-0.6-1.4-0.9-2.2-0.9l0,0c-2,0.1-3.1,1.6-3.1,3.1c0,1.1,0.6,2.3,1.8,2.8
			c0.4,0.2,0.8,0.3,1.3,0.3c1.8,0,3.1-1.4,3.1-3.1c0-0.4-0.1-0.8-0.2-1.2C20.1,13.8,19.9,13.4,19.6,13.2z"/>
		<path class="st1" d="M20,20C19.9,19.9,19.9,19.9,20,20c-0.3-0.3-0.6-0.3-0.7-0.3c-0.6,0-1.1,0-1.7,0c-0.2,0-0.5,0-0.7,0h-1.2
			c-0.8,0-1,0.2-1,1v5.5c0,2.8,0,5.5,0,8.3c0,0.2,0,0.5,0.2,0.7c0.1,0.1,0.2,0.2,0.4,0.2c0.1,0,0.2,0,0.3,0h0c1.1,0,2.3,0,3.7,0
			c0.2,0,0.5,0,0.7-0.2c0.2-0.2,0.2-0.5,0.2-0.6v0c0-4.1,0-8.2,0-12.3v-1.7C20.2,20.5,20.2,20.2,20,20L20,20z"/>
		<path class="st1" d="M37.6,29.8c0-0.3,0-0.5,0-0.8c0-0.9,0-1.9,0-2.9c0-1.2-0.1-2.5-0.7-3.8c-0.2-0.4-0.4-0.8-0.6-1.1
			c-0.2-0.3-0.5-0.6-0.8-0.9s-0.7-0.4-1.1-0.6c-2-0.8-4.7-0.7-6.4,0.8c-0.1,0.1-0.3,0.2-0.4,0.4c0-0.1,0-0.2,0-0.4
			c0-0.2,0-0.4-0.1-0.6c0,0,0-0.1-0.1-0.1c-0.2-0.2-0.6-0.2-0.7-0.2c-0.3,0-0.5,0-0.8,0c-1,0-1.8,0-2.7,0c-0.2,0-0.5,0-0.7,0.2
			c-0.2,0.2-0.2,0.6-0.2,0.7v1.6c0,0.7,0,1.4,0,2.1c0,3.4,0,6.8,0,10.2c0,0.1,0,0.5,0.2,0.7c0.2,0.2,0.5,0.2,0.7,0.2h0
			c0.8,0,1.6,0,2.4,0h1.1c0.9,0,1.1-0.2,1.1-1.1c0-0.7,0-1.4,0-2.1c0-0.8,0-1.6,0-2.5c0-0.7,0-1.4,0-2.1c0-0.1,0-0.2,0-0.3
			c0-1.2,0.3-2.1,0.9-2.6c0.4-0.4,1.1-0.6,1.8-0.5c0,0,0,0,0,0c0.8,0.1,1.2,0.6,1.4,1.4c0,0,0,0.1,0,0.1c0.1,0.5,0.1,1,0.1,1.5v1.5
			c0,1.1,0,2.1,0,3.2c0,0.7,0,1.4,0,2.2v0.3c0,0.7,0.2,1,1,1h0.3c0.7,0,1.4,0,2.2,0h1.1c0.8,0,1-0.2,1-1v-4.3L37.6,29.8z"/>
	</g>
</g>
</svg>
