<?xml version="1.0" encoding="utf-8"?>
<!-- Generator: Adobe Illustrator 27.0.0, SVG Export Plug-In . SVG Version: 6.00 Build 0)  -->
<svg version="1.1" id="Layer_1" xmlns="http://www.w3.org/2000/svg" xmlns:xlink="http://www.w3.org/1999/xlink" x="0px" y="0px"
	 viewBox="0 0 50 50" style="enable-background:new 0 0 50 50;" xml:space="preserve">
<style type="text/css">
	.st0{fill:#F4A460;}
	.st1{fill:#D26A28;}
	.st2{fill:#FFFFFF;}
</style>
<g>
	<circle class="st0" cx="25" cy="25" r="25"/>
	<path class="st1" d="M48.52,33.49c-0.66,1.81-1.51,3.53-2.55,5.12c-0.16,0.25-0.33,0.49-0.49,0.73c-0.84,1.19-1.77,2.31-2.8,3.33
		c-0.36,0.36-0.73,0.71-1.11,1.04c-1.94,1.72-4.14,3.14-6.55,4.19c-1.78,0.78-3.67,1.36-5.65,1.71L15.22,35.47
		c-0.12-0.03-0.25-0.09-0.37-0.2c-0.22-0.22-0.25-0.52-0.24-0.72c0.01-2.77,0.01-5.53,0-8.3V20.7c0-0.82,0.21-1.03,1.02-1.04h1.2
		c0.23,0,0.46,0,0.69,0l-1.48-1.48c-1.19-0.53-1.75-1.71-1.75-2.82c0-1.52,1.05-3.09,3.07-3.14h0c0.85,0,1.64,0.33,2.24,0.93
		c0.29,0.29,0.52,0.62,0.67,0.98l5.53,5.53c0.26,0,0.52,0,0.79-0.01c0.11,0,0.45-0.01,0.69,0.24c0.03,0.03,0.06,0.07,0.08,0.1
		l0.55,0.55c1.75-1.45,4.38-1.55,6.42-0.77c0.39,0.15,0.74,0.34,1.06,0.58c0.32,0.24,0.6,0.52,0.85,0.85L48.52,33.49z"/>
	<g>
		<path class="st2" d="M19.61,13.16c-0.6-0.6-1.39-0.93-2.24-0.93h0c-2.02,0.05-3.07,1.62-3.07,3.14c0,1.11,0.56,2.29,1.75,2.82
			c0.38,0.17,0.83,0.27,1.34,0.28c1.76,0,3.14-1.37,3.14-3.12c0-0.42-0.08-0.83-0.25-1.21C20.12,13.78,19.9,13.44,19.61,13.16z"/>
		<path class="st2" d="M19.97,19.97c-0.02-0.03-0.04-0.05-0.06-0.07c-0.24-0.24-0.57-0.23-0.68-0.23c-0.57,0-1.14,0.01-1.71,0.01
			c-0.23,0-0.46,0-0.69,0h-1.2c-0.81,0-1.02,0.21-1.02,1.04v5.54c0,2.77,0,5.54,0,8.3c0,0.21,0.02,0.5,0.24,0.72
			c0.11,0.11,0.25,0.17,0.37,0.2c0.12,0.03,0.22,0.03,0.29,0.03h0.04c1.12-0.02,2.32-0.02,3.67,0c0.19,0,0.48-0.02,0.69-0.23
			c0.21-0.21,0.24-0.5,0.24-0.64v-0.04c-0.01-4.1-0.01-8.2,0-12.3v-1.73c0-0.1,0-0.35-0.16-0.57L19.97,19.97z"/>
		<path class="st2" d="M37.57,29.79c0-0.27,0-0.54,0-0.81c0.01-0.94,0.01-1.91-0.01-2.86c-0.03-1.17-0.14-2.54-0.71-3.84
			c-0.17-0.39-0.37-0.75-0.61-1.06c-0.25-0.33-0.53-0.61-0.85-0.85c-0.32-0.24-0.67-0.44-1.06-0.58c-2.04-0.78-4.67-0.68-6.42,0.77
			c-0.14,0.12-0.29,0.25-0.42,0.39c0-0.12,0-0.25,0.01-0.36c0.01-0.23-0.04-0.42-0.14-0.57c-0.02-0.04-0.05-0.07-0.08-0.1
			c-0.24-0.25-0.58-0.24-0.69-0.24c-0.27,0-0.53,0.01-0.79,0.01c-0.95,0.01-1.83,0-2.69-0.01c-0.18,0-0.48,0.02-0.69,0.23
			c-0.24,0.24-0.24,0.57-0.24,0.68v1.61c0,0.71,0,1.43,0,2.15c0,3.36,0,6.79,0,10.24c0,0.11,0,0.45,0.24,0.69
			c0.22,0.22,0.52,0.23,0.66,0.23h0.03c0.8-0.01,1.61-0.01,2.41-0.01l1.07,0c0.86,0,1.07-0.21,1.07-1.06c0-0.71,0-1.41,0-2.12
			c0-0.82,0-1.65,0-2.49c0-0.71,0-1.43,0.01-2.14c0-0.1,0-0.21,0-0.31c-0.02-1.19,0.29-2.13,0.86-2.65c0.44-0.4,1.06-0.56,1.84-0.47
			c0.02,0,0.03,0,0.05,0.01c0.75,0.1,1.23,0.56,1.44,1.4c0.01,0.04,0.02,0.08,0.03,0.12c0.11,0.47,0.13,0.95,0.13,1.52v1.55
			c0,1.06,0,2.13,0,3.19c0,0.71,0,1.43,0,2.15v0.35c0,0.71,0.24,0.95,0.95,0.95h0.35c0.72,0,1.43,0,2.15,0h1.1
			c0.76,0,0.98-0.23,0.98-1v-4.28L37.57,29.79z"/>
	</g>
</g>
</svg>
