<?xml version="1.0" encoding="utf-8"?>
<!-- Generator: Adobe Illustrator 27.0.0, SVG Export Plug-In . SVG Version: 6.00 Build 0)  -->
<svg version="1.1" id="Layer_1" xmlns="http://www.w3.org/2000/svg" xmlns:xlink="http://www.w3.org/1999/xlink" x="0px" y="0px"
	 viewBox="0 0 50 50" style="enable-background:new 0 0 50 50;" xml:space="preserve">
<style type="text/css">
	.st0{fill:#F3F3F3;}
	.st1{fill:#F4A460;}
	.st2{fill:none;}
	.st3{fill:#D26A28;}
</style>
<g>
	<circle class="st0" cx="25" cy="25" r="25"/>
	<g>
		<path class="st1" d="M46.65,12.45c-2.23-3.83-5.27-6.86-9.1-9.1S29.54,0,25,0s-8.72,1.12-12.55,3.35c-3.83,2.23-6.86,5.27-9.1,9.1
			C1.12,16.28,0,20.46,0,25c0,5.06,1.38,9.65,4.13,13.77s6.37,7.17,10.84,9.15c-0.09-2.32,0.06-4.24,0.42-5.76l3.22-13.61
			c-0.54-1.06-0.82-2.39-0.82-3.97c0-1.84,0.46-3.38,1.4-4.62c0.93-1.23,2.07-1.86,3.42-1.86c1.09,0,1.92,0.36,2.51,1.08
			c0.59,0.71,0.88,1.62,0.88,2.7c0,0.67-0.13,1.49-0.37,2.46c-0.25,0.96-0.58,2.08-0.97,3.35c-0.4,1.27-0.69,2.29-0.86,3.05
			c-0.31,1.32-0.06,2.46,0.75,3.4c0.8,0.94,1.87,1.42,3.19,1.42c2.32,0,4.22-1.29,5.71-3.87c1.48-2.58,2.23-5.72,2.23-9.41
			c0-2.84-0.92-5.15-2.75-6.93s-4.39-2.67-7.67-2.67c-3.67,0-6.63,1.18-8.9,3.53c-2.27,2.36-3.4,5.17-3.4,8.45
			c0,1.95,0.55,3.59,1.66,4.92c0.37,0.43,0.49,0.9,0.36,1.4c-0.05,0.13-0.13,0.45-0.26,0.97c-0.13,0.52-0.22,0.86-0.26,1.01
			c-0.17,0.69-0.59,0.91-1.23,0.65c-1.67-0.69-2.94-1.9-3.81-3.61s-1.3-3.7-1.3-5.96c0-1.45,0.23-2.91,0.7-4.36
			c0.46-1.45,1.19-2.86,2.18-4.21c0.99-1.36,2.17-2.56,3.55-3.6c1.38-1.04,3.06-1.88,5.03-2.51s4.1-0.94,6.38-0.94
			c3.08,0,5.85,0.68,8.3,2.05c2.45,1.37,4.33,3.14,5.62,5.31c1.29,2.17,1.94,4.49,1.94,6.96c0,3.26-0.57,6.18-1.69,8.79
			c-1.13,2.6-2.72,4.65-4.79,6.14c-2.06,1.48-4.41,2.23-7.03,2.23c-1.32,0-2.56-0.31-3.71-0.93c-1.15-0.62-1.94-1.35-2.38-2.2
			c-0.98,3.82-1.57,6.11-1.77,6.85c-0.41,1.54-1.26,3.32-2.54,5.34C20.22,49.65,22.59,50,25,50c4.54,0,8.72-1.12,12.55-3.35
			c3.83-2.23,6.86-5.27,9.1-9.1C48.88,33.72,50,29.54,50,25S48.88,16.28,46.65,12.45z"/>
	</g>
	<g>
		<path class="st2" d="M25.95,8.42c-2.28,0-4.41,0.32-6.38,0.94s-3.65,1.46-5.03,2.51c-1.38,1.04-2.56,2.24-3.55,3.6
			c-0.98,1.36-1.71,2.76-2.18,4.21c-0.46,1.45-0.7,2.91-0.7,4.36c0,2.26,0.43,4.24,1.3,5.96c0.44,0.86,0.97,1.6,1.61,2.2l-0.04-0.04
			l-0.88-7.99l6.25-10.09l9.3-3.68l12.05,2.62c-0.98-0.97-2.13-1.82-3.45-2.55C31.8,9.1,29.03,8.42,25.95,8.42z"/>
		<path class="st2" d="M37.75,13.07l0.1,0.1C37.82,13.14,37.79,13.11,37.75,13.07z"/>
		<path class="st1" d="M20.44,43.62c-0.41,1.54-1.26,3.32-2.54,5.34C20.22,49.65,22.59,50,25,50c1.22,0,2.41-0.08,3.58-0.24
			l-7.72-7.72C20.66,42.8,20.52,43.33,20.44,43.62z"/>
		<path class="st3" d="M37.7,13.02c0.02,0.02,0.03,0.03,0.05,0.05L37.7,13.02L37.7,13.02z"/>
		<path class="st3" d="M46.65,37.55c2.18-3.74,3.3-7.82,3.35-12.23L37.86,13.18c0.78,0.79,1.45,1.66,2.01,2.6
			c1.29,2.17,1.94,4.49,1.94,6.96c0,3.26-0.57,6.18-1.69,8.79c-1.13,2.6-2.72,4.65-4.79,6.14c-2.06,1.48-4.41,2.23-7.03,2.23
			c-1.32,0-2.56-0.31-3.71-0.93c-1.15-0.62-1.94-1.35-2.38-2.2c-0.6,2.32-1.05,4.08-1.35,5.26l7.72,7.72
			c3.18-0.44,6.17-1.47,8.97-3.11C41.38,44.41,44.41,41.38,46.65,37.55z"/>
		<path class="st3" d="M17.81,24.58c0-1.84,0.46-3.38,1.4-4.62c0.93-1.23,2.07-1.86,3.42-1.86c1.09,0,1.92,0.36,2.51,1.08
			c0.59,0.71,0.88,1.62,0.88,2.7c0,0.67-0.13,1.49-0.37,2.46c-0.25,0.96-0.58,2.08-0.97,3.35c-0.4,1.27-0.69,2.29-0.86,3.05
			c-0.31,1.32-0.06,2.46,0.75,3.4c0.8,0.94,1.87,1.42,3.19,1.42c2.32,0,4.22-1.29,5.71-3.87c1.48-2.58,2.23-5.72,2.23-9.41
			c0-2.84-0.92-5.15-2.75-6.93c-1.83-1.78-4.39-2.67-7.67-2.67c-3.67,0-6.63,1.18-8.9,3.53c-2.27,2.36-3.4,5.17-3.4,8.45
			c0,1.95,0.55,3.59,1.66,4.92c0.37,0.43,0.49,0.9,0.36,1.4c-0.05,0.13-0.13,0.45-0.26,0.97s-0.22,0.86-0.26,1.01
			c-0.17,0.69-0.59,0.91-1.23,0.65c-0.83-0.34-1.56-0.82-2.19-1.41l5.45,5.45l2.16-9.1C18.08,27.49,17.81,26.16,17.81,24.58z"/>
	</g>
</g>
</svg>
