<?xml version="1.0" encoding="utf-8"?>
<!-- Generator: Adobe Illustrator 27.0.0, SVG Export Plug-In . SVG Version: 6.00 Build 0)  -->
<svg version="1.1" id="Layer_1" xmlns="http://www.w3.org/2000/svg" xmlns:xlink="http://www.w3.org/1999/xlink" x="0px" y="0px"
	 viewBox="0 0 50 50" style="enable-background:new 0 0 50 50;" xml:space="preserve">
<style type="text/css">
	.st0{fill:#F4A460;}
	.st1{fill:#D26A28;}
	.st2{fill:#FFFFFF;}
</style>
<circle class="st0" cx="25" cy="25" r="25"/>
<path class="st1" d="M49.9,27.2c-0.96,11.05-9.12,20.04-19.76,22.27L15.07,34.4c-0.43-0.24-0.85-0.51-1.25-0.8
	c-0.17-0.12-0.23-0.34-0.16-0.53c0.07-0.19,0.26-0.31,0.46-0.3c2.05,0.14,3.87-0.22,5.52-1.1l-1.05-0.93
	c-0.88-0.51-1.64-1.25-2.15-2.37c-0.21-0.33-0.24-0.62-0.1-0.87c0.13-0.22,0.33-0.32,0.59-0.35c-1.49-0.99-2.36-2.37-2.52-4.07
	c-0.06-0.35,0.02-0.62,0.22-0.79c0.26-0.22,0.59-0.18,0.94-0.07c-1.26-1.69-1.52-3.76-0.66-5.66c0.08-0.18,0.23-0.54,0.6-0.6
	c0.38-0.06,0.64,0.24,0.76,0.37c1.99,2.25,4.46,3.74,7.34,4.42c0.17,0.01,0.38,0.06,0.71,0.13c0.29,0.07,0.9,0.21,1.21,0.2
	c-0.33-2.24,0.82-4.4,2.93-5.53c2.13-1.13,4.59-0.86,6.28,0.69c0.51,0.3,1.29-0.08,2.05-0.46c0.33-0.17,0.65-0.32,0.96-0.42
	c0.12-0.04,0.25-0.03,0.36,0.02c0.02,0.01,0.05,0.02,0.06,0.04c0.06,0.04,0.1,0.1,0.13,0.16L49.9,27.2z"/>
<path class="st2" d="M39.1,17.96c-0.34,0.76-0.92,1.28-1.44,1.73c-0.65,0.57-1.04,0.95-1.01,1.51c0.16,5.33-2.92,10.32-8.05,13.03
	c-1.4,0.74-2.85,1.25-4.31,1.53c-0.93,0.18-1.86,0.28-2.78,0.28c-2.27,0-4.48-0.55-6.44-1.65c-0.43-0.24-0.85-0.51-1.25-0.8
	c-0.17-0.12-0.23-0.34-0.16-0.53c0.07-0.19,0.26-0.31,0.46-0.3c2.05,0.14,3.87-0.22,5.52-1.1c0.16-0.08,0.31-0.17,0.46-0.26
	c-0.52-0.18-1.04-0.39-1.52-0.67c-0.88-0.51-1.64-1.25-2.15-2.37c-0.21-0.33-0.24-0.62-0.1-0.87c0.13-0.22,0.33-0.32,0.59-0.35
	c-1.49-0.99-2.36-2.37-2.52-4.07c-0.06-0.35,0.02-0.62,0.22-0.79c0.26-0.22,0.59-0.18,0.94-0.07c-1.26-1.69-1.52-3.76-0.66-5.66
	c0.08-0.18,0.23-0.54,0.6-0.6c0.38-0.06,0.64,0.24,0.76,0.37c1.99,2.25,4.46,3.74,7.34,4.42c0.17,0.01,0.38,0.06,0.71,0.13
	c0.29,0.07,0.9,0.21,1.21,0.2c-0.33-2.24,0.82-4.4,2.93-5.53c2.13-1.13,4.59-0.86,6.28,0.69c0.51,0.3,1.29-0.08,2.05-0.46
	c0.33-0.17,0.65-0.32,0.96-0.42c0.12-0.04,0.25-0.03,0.36,0.02c0.02,0.01,0.05,0.02,0.06,0.04c0.06,0.04,0.1,0.1,0.13,0.16
	c0.03,0.07,0.05,0.14,0.05,0.22c-0.01,0.64-0.21,1.04-0.94,1.88c0.17-0.05,0.33-0.11,0.51-0.17c0.21-0.07,0.41-0.14,0.63-0.2
	c0.17-0.06,0.36,0,0.48,0.13C39.15,17.6,39.17,17.8,39.1,17.96z"/>
</svg>
