<?xml version="1.0" encoding="utf-8"?>
<!-- Generator: Adobe Illustrator 27.0.0, SVG Export Plug-In . SVG Version: 6.00 Build 0)  -->
<svg version="1.1" id="Layer_1" xmlns="http://www.w3.org/2000/svg" xmlns:xlink="http://www.w3.org/1999/xlink" x="0px" y="0px"
	 viewBox="0 0 50 50" style="enable-background:new 0 0 50 50;" xml:space="preserve">
<style type="text/css">
	.st0{fill:#D26A28;}
	.st1{fill-rule:evenodd;clip-rule:evenodd;fill:#F2F2F2;}
	.st2{fill:#F4A460;}
</style>
<path class="st0" d="M49.75,28.5L35.41,14.15c-2.43-2.24-5.68-3.61-9.24-3.61c-7.53,0-13.64,6.11-13.64,13.64
	c0,2.58,0.72,4.99,1.96,7.04l-2.46,7.32l11.4,11.4C23.94,49.98,24.47,50,25,50C37.62,50,48.05,40.65,49.75,28.5z"/>
<g>
	<path class="st1" d="M32.56,27.28c-0.34-0.19-2.02-1.09-2.34-1.22c-0.31-0.13-0.54-0.19-0.79,0.15c-0.24,0.34-0.94,1.1-1.15,1.32
		c-0.21,0.23-0.42,0.25-0.76,0.06c-0.34-0.19-1.45-0.6-2.73-1.83c-1-0.96-1.66-2.13-1.85-2.48c-0.19-0.36,0-0.54,0.18-0.7
		c0.16-0.15,0.36-0.39,0.55-0.59c0.18-0.2,0.24-0.34,0.37-0.57c0.12-0.23,0.07-0.43-0.01-0.61c-0.08-0.18-0.71-1.92-0.98-2.62
		c-0.26-0.71-0.56-0.6-0.76-0.61c-0.2-0.01-0.43-0.04-0.67-0.05c-0.23-0.01-0.61,0.06-0.94,0.4c-0.33,0.34-1.26,1.14-1.33,2.86
		c-0.06,1.71,1.12,3.41,1.29,3.65c0.17,0.24,2.26,3.95,5.75,5.48c3.49,1.53,3.51,1.06,4.15,1.03c0.64-0.03,2.09-0.77,2.41-1.57
		c0.32-0.8,0.35-1.5,0.26-1.65C33.13,27.57,32.9,27.47,32.56,27.28L32.56,27.28z M26.16,35.54c-2.31,0-4.45-0.69-6.25-1.88
		l-4.36,1.4l1.42-4.22c-1.36-1.87-2.16-4.17-2.16-6.66c0-6.26,5.09-11.35,11.35-11.35c6.26,0,11.35,5.09,11.35,11.35
		C37.52,30.44,32.42,35.54,26.16,35.54L26.16,35.54z M26.16,10.54c-7.53,0-13.64,6.11-13.64,13.64c0,2.58,0.72,4.99,1.96,7.04
		l-2.46,7.32l7.55-2.42c1.95,1.08,4.2,1.7,6.59,1.7c7.53,0,13.64-6.11,13.64-13.64C39.8,16.65,33.7,10.54,26.16,10.54L26.16,10.54z"
		/>
</g>
<g>
	<path class="st2" d="M14.48,31.23c-1.24-2.06-1.96-4.47-1.96-7.04c0-7.53,6.11-13.64,13.64-13.64c3.57,0,6.81,1.37,9.24,3.61
		L49.75,28.5C49.91,27.35,50,26.19,50,25C50,11.19,38.81,0,25,0S0,11.19,0,25c0,13.28,10.35,24.13,23.42,24.95l-11.4-11.4
		L14.48,31.23z"/>
</g>
</svg>
