<?xml version="1.0" encoding="utf-8"?>
<!-- Generator: Adobe Illustrator 27.0.0, SVG Export Plug-In . SVG Version: 6.00 Build 0)  -->
<svg version="1.1" id="Layer_1" xmlns="http://www.w3.org/2000/svg" xmlns:xlink="http://www.w3.org/1999/xlink" x="0px" y="0px"
	 viewBox="0 0 50 50" style="enable-background:new 0 0 50 50;" xml:space="preserve">
<style type="text/css">
	.st0{fill:#D26A28;}
	.st1{fill:#F4A460;}
	.st2{fill-rule:evenodd;clip-rule:evenodd;fill:#F2F2F2;}
</style>
<g>
	<path class="st0" d="M49.91,27.09L38.69,15.87l-17.64,0.31l-6,3l-2,2.9l0.52,0.52l5.16,5.13l-4.66,3.42l-2.64,3.07L27.13,49.9
		C39.25,48.88,48.9,39.21,49.91,27.09z"/>
	<g>
		<path class="st1" d="M14.08,31.16l4.66-3.42l-5.16-5.13l-0.52-0.52l2-2.9l6-3l17.64-0.31l11.21,11.21C49.96,26.4,50,25.7,50,25
			C50,11.19,38.81,0,25,0C11.19,0,0,11.19,0,25s11.19,25,25,25c0.72,0,1.43-0.04,2.13-0.1L11.44,34.22L14.08,31.16z"/>
	</g>
	<g>
		<path class="st2" d="M39.94,19.01c0-2.47-2-4.47-4.47-4.47c0,0-8.44-0.35-10.48-0.35s-10.48,0.35-10.48,0.35
			c-2.47,0-4.47,2-4.47,4.47v11.98c0,2.47,2,4.47,4.47,4.47c0,0,7.56,0.39,10.48,0.39s10.48-0.39,10.48-0.39
			c2.47,0,4.47-2,4.47-4.47V19.01z M22.01,30.06V18.8l8.54,5.63L22.01,30.06z M22.01,30.06"/>
	</g>
</g>
</svg>
